{
	"asset":{
		"generator":"Khronos glTF Blender I/O v4.2.69",
		"version":"2.0"
	},
	"scene":0,
	"scenes":[
		{
			"name":"Scene",
			"nodes":[
				0
			]
		}
	],
	"nodes":[
		{
			"mesh":0,
			"name":"Spaceship Base"
		}
	],
	"animations":[
		{
			"channels":[
				{
					"sampler":0,
					"target":{
						"node":0,
						"path":"translation"
					}
				},
				{
					"sampler":1,
					"target":{
						"node":0,
						"path":"rotation"
					}
				},
				{
					"sampler":2,
					"target":{
						"node":0,
						"path":"scale"
					}
				}
			],
			"name":"Spaceship BaseAction",
			"samplers":[
				{
					"input":24,
					"interpolation":"LINEAR",
					"output":25
				},
				{
					"input":24,
					"interpolation":"LINEAR",
					"output":26
				},
				{
					"input":27,
					"interpolation":"STEP",
					"output":28
				}
			]
		}
	],
	"materials":[
		{
			"doubleSided":true,
			"name":"Ship Base Material",
			"pbrMetallicRoughness":{
				"baseColorTexture":{
					"index":0
				},
				"metallicFactor":0.613636314868927,
				"roughnessFactor":0.6590909361839294
			}
		},
		{
			"doubleSided":true,
			"name":"Material",
			"pbrMetallicRoughness":{
				"baseColorFactor":[
					0.021568428725004196,
					0.059343039989471436,
					0.11245020478963852,
					1
				],
				"metallicFactor":0.6136363744735718,
				"roughnessFactor":0
			}
		},
		{
			"doubleSided":true,
			"name":"Material.001",
			"pbrMetallicRoughness":{
				"baseColorFactor":[
					0.5657716393470764,
					0.3109283745288849,
					0.13918514549732208,
					1
				],
				"metallicFactor":0.45454543828964233,
				"roughnessFactor":0
			}
		},
		{
			"doubleSided":true,
			"name":"Material.002",
			"pbrMetallicRoughness":{
				"baseColorFactor":[
					0.8000000715255737,
					0.01026485301554203,
					0.0369948111474514,
					1
				],
				"metallicFactor":0,
				"roughnessFactor":0.5
			}
		},
		{
			"doubleSided":true,
			"name":"Material.003",
			"pbrMetallicRoughness":{
				"baseColorFactor":[
					0.8000000715255737,
					0.3238462209701538,
					0.08769223839044571,
					1
				],
				"metallicFactor":0,
				"roughnessFactor":0.5
			}
		},
		{
			"doubleSided":true,
			"name":"Material.004",
			"pbrMetallicRoughness":{
				"baseColorFactor":[
					0.047908540815114975,
					0.047908540815114975,
					0.047908540815114975,
					1
				],
				"metallicFactor":0,
				"roughnessFactor":0.5
			}
		}
	],
	"meshes":[
		{
			"name":"Cube",
			"primitives":[
				{
					"attributes":{
						"POSITION":0,
						"NORMAL":1,
						"TEXCOORD_0":2
					},
					"indices":3,
					"material":0
				},
				{
					"attributes":{
						"POSITION":4,
						"NORMAL":5,
						"TEXCOORD_0":6
					},
					"indices":7,
					"material":1
				},
				{
					"attributes":{
						"POSITION":8,
						"NORMAL":9,
						"TEXCOORD_0":10
					},
					"indices":11,
					"material":2
				},
				{
					"attributes":{
						"POSITION":12,
						"NORMAL":13,
						"TEXCOORD_0":14
					},
					"indices":15,
					"material":3
				},
				{
					"attributes":{
						"POSITION":16,
						"NORMAL":17,
						"TEXCOORD_0":18
					},
					"indices":19,
					"material":4
				},
				{
					"attributes":{
						"POSITION":20,
						"NORMAL":21,
						"TEXCOORD_0":22
					},
					"indices":23,
					"material":5
				}
			]
		}
	],
	"textures":[
		{
			"sampler":0,
			"source":0
		}
	],
	"images":[
		{
			"bufferView":4,
			"mimeType":"image/jpeg",
			"name":"green_metal_rust_diff_2k"
		}
	],
	"accessors":[
		{
			"bufferView":0,
			"componentType":5126,
			"count":1781,
			"max":[
				4.148016929626465,
				1.2756891250610352,
				6.637164115905762
			],
			"min":[
				-4.138309478759766,
				-0.17873018980026245,
				-4.512713432312012
			],
			"type":"VEC3"
		},
		{
			"bufferView":1,
			"componentType":5126,
			"count":1781,
			"type":"VEC3"
		},
		{
			"bufferView":2,
			"componentType":5126,
			"count":1781,
			"type":"VEC2"
		},
		{
			"bufferView":3,
			"componentType":5123,
			"count":2898,
			"type":"SCALAR"
		},
		{
			"bufferView":5,
			"componentType":5126,
			"count":202,
			"max":[
				1.2196794748306274,
				1.2642277479171753,
				3.744940996170044
			],
			"min":[
				-1.2095123529434204,
				0.6884149312973022,
				-2.198056697845459
			],
			"type":"VEC3"
		},
		{
			"bufferView":6,
			"componentType":5126,
			"count":202,
			"type":"VEC3"
		},
		{
			"bufferView":7,
			"componentType":5126,
			"count":202,
			"type":"VEC2"
		},
		{
			"bufferView":8,
			"componentType":5123,
			"count":312,
			"type":"SCALAR"
		},
		{
			"bufferView":9,
			"componentType":5126,
			"count":24,
			"max":[
				1.0067633390426636,
				0.8013603091239929,
				5.774423599243164
			],
			"min":[
				-0.9967597723007202,
				0.37949252128601074,
				3.5466911792755127
			],
			"type":"VEC3"
		},
		{
			"bufferView":10,
			"componentType":5126,
			"count":24,
			"type":"VEC3"
		},
		{
			"bufferView":11,
			"componentType":5126,
			"count":24,
			"type":"VEC2"
		},
		{
			"bufferView":12,
			"componentType":5123,
			"count":36,
			"type":"SCALAR"
		},
		{
			"bufferView":13,
			"componentType":5126,
			"count":14,
			"max":[
				3.7312440872192383,
				0.9761635661125183,
				-3.5011415481567383
			],
			"min":[
				-3.7213714122772217,
				0.28999942541122437,
				-4.1159491539001465
			],
			"type":"VEC3"
		},
		{
			"bufferView":14,
			"componentType":5126,
			"count":14,
			"type":"VEC3"
		},
		{
			"bufferView":15,
			"componentType":5126,
			"count":14,
			"type":"VEC2"
		},
		{
			"bufferView":16,
			"componentType":5123,
			"count":24,
			"type":"SCALAR"
		},
		{
			"bufferView":17,
			"componentType":5126,
			"count":798,
			"max":[
				3.8006625175476074,
				1.333896279335022,
				7.090333938598633
			],
			"min":[
				-3.790712356567383,
				-0.9019023180007935,
				-4.273343086242676
			],
			"type":"VEC3"
		},
		{
			"bufferView":18,
			"componentType":5126,
			"count":798,
			"type":"VEC3"
		},
		{
			"bufferView":19,
			"componentType":5126,
			"count":798,
			"type":"VEC2"
		},
		{
			"bufferView":20,
			"componentType":5123,
			"count":1320,
			"type":"SCALAR"
		},
		{
			"bufferView":21,
			"componentType":5126,
			"count":1050,
			"max":[
				4.148016929626465,
				1.333896279335022,
				7.090333938598633
			],
			"min":[
				-4.138309478759766,
				-2.068898916244507,
				-4.512713432312012
			],
			"type":"VEC3"
		},
		{
			"bufferView":22,
			"componentType":5126,
			"count":1050,
			"type":"VEC3"
		},
		{
			"bufferView":23,
			"componentType":5126,
			"count":1050,
			"type":"VEC2"
		},
		{
			"bufferView":24,
			"componentType":5123,
			"count":1644,
			"type":"SCALAR"
		},
		{
			"bufferView":25,
			"componentType":5126,
			"count":201,
			"max":[
				8.333333333333334
			],
			"min":[
				0
			],
			"type":"SCALAR"
		},
		{
			"bufferView":26,
			"componentType":5126,
			"count":201,
			"type":"VEC3"
		},
		{
			"bufferView":27,
			"componentType":5126,
			"count":201,
			"type":"VEC4"
		},
		{
			"bufferView":28,
			"componentType":5126,
			"count":2,
			"max":[
				8.333333333333334
			],
			"min":[
				0
			],
			"type":"SCALAR"
		},
		{
			"bufferView":29,
			"componentType":5126,
			"count":2,
			"type":"VEC3"
		}
	],
	"bufferViews":[
		{
			"buffer":0,
			"byteLength":21372,
			"byteOffset":0,
			"target":34962
		},
		{
			"buffer":0,
			"byteLength":21372,
			"byteOffset":21372,
			"target":34962
		},
		{
			"buffer":0,
			"byteLength":14248,
			"byteOffset":42744,
			"target":34962
		},
		{
			"buffer":0,
			"byteLength":5796,
			"byteOffset":56992,
			"target":34963
		},
		{
			"buffer":0,
			"byteLength":787402,
			"byteOffset":62788
		},
		{
			"buffer":0,
			"byteLength":2424,
			"byteOffset":850192,
			"target":34962
		},
		{
			"buffer":0,
			"byteLength":2424,
			"byteOffset":852616,
			"target":34962
		},
		{
			"buffer":0,
			"byteLength":1616,
			"byteOffset":855040,
			"target":34962
		},
		{
			"buffer":0,
			"byteLength":624,
			"byteOffset":856656,
			"target":34963
		},
		{
			"buffer":0,
			"byteLength":288,
			"byteOffset":857280,
			"target":34962
		},
		{
			"buffer":0,
			"byteLength":288,
			"byteOffset":857568,
			"target":34962
		},
		{
			"buffer":0,
			"byteLength":192,
			"byteOffset":857856,
			"target":34962
		},
		{
			"buffer":0,
			"byteLength":72,
			"byteOffset":858048,
			"target":34963
		},
		{
			"buffer":0,
			"byteLength":168,
			"byteOffset":858120,
			"target":34962
		},
		{
			"buffer":0,
			"byteLength":168,
			"byteOffset":858288,
			"target":34962
		},
		{
			"buffer":0,
			"byteLength":112,
			"byteOffset":858456,
			"target":34962
		},
		{
			"buffer":0,
			"byteLength":48,
			"byteOffset":858568,
			"target":34963
		},
		{
			"buffer":0,
			"byteLength":9576,
			"byteOffset":858616,
			"target":34962
		},
		{
			"buffer":0,
			"byteLength":9576,
			"byteOffset":868192,
			"target":34962
		},
		{
			"buffer":0,
			"byteLength":6384,
			"byteOffset":877768,
			"target":34962
		},
		{
			"buffer":0,
			"byteLength":2640,
			"byteOffset":884152,
			"target":34963
		},
		{
			"buffer":0,
			"byteLength":12600,
			"byteOffset":886792,
			"target":34962
		},
		{
			"buffer":0,
			"byteLength":12600,
			"byteOffset":899392,
			"target":34962
		},
		{
			"buffer":0,
			"byteLength":8400,
			"byteOffset":911992,
			"target":34962
		},
		{
			"buffer":0,
			"byteLength":3288,
			"byteOffset":920392,
			"target":34963
		},
		{
			"buffer":0,
			"byteLength":804,
			"byteOffset":923680
		},
		{
			"buffer":0,
			"byteLength":2412,
			"byteOffset":924484
		},
		{
			"buffer":0,
			"byteLength":3216,
			"byteOffset":926896
		},
		{
			"buffer":0,
			"byteLength":8,
			"byteOffset":930112
		},
		{
			"buffer":0,
			"byteLength":24,
			"byteOffset":930120
		}
	],
	"samplers":[
		{
			"magFilter":9729,
			"minFilter":9987
		}
	],
	"buffers":[
		{
			"byteLength":930144,
			"uri":"data:application/octet-stream;base64,"
		}
	]
}
